<svg xmlns="http://www.w3.org/2000/svg" version="1.1" xmlns:xlink="http://www.w3.org/1999/xlink" xmlns:svgjs="http://svgjs.dev/svgjs" width="1500" height="1500" viewBox="0 0 1500 1500"><rect width="1500" height="1500" fill="#000000"></rect><g transform="matrix(0.6666666666666666,0,0,0.6666666666666666,249.39393939393938,699.4882664514492)"><svg viewBox="0 0 396 40" data-background-color="#111111" preserveAspectRatio="xMidYMid meet" height="151" width="1500" xmlns="http://www.w3.org/2000/svg" xmlns:xlink="http://www.w3.org/1999/xlink"><g id="tight-bounds" transform="matrix(1,0,0,1,0.2400000000000091,0.07088750273538835)"><svg viewBox="0 0 395.52 39.8582249945292" height="39.8582249945292" width="395.52"><g><svg viewBox="0 0 395.52 39.8582249945292" height="39.8582249945292" width="395.52"><g><svg viewBox="0 0 395.52 39.8582249945292" height="39.8582249945292" width="395.52"><g id="textblocktransform"><svg viewBox="0 0 395.52 39.8582249945292" height="39.8582249945292" width="395.52" id="textblock"><g><svg viewBox="0 0 395.52 21.497621993127144" height="21.497621993127144" width="395.52"><g transform="matrix(1,0,0,1,0,0)"><svg width="395.52" viewBox="4.6 -37.5 867.73 47.45" height="21.497621993127144" data-palette-color="#d9caa1"><g class="wordmark-text-0" data-fill-palette-color="primary" id="text-0"><path d="M4.6 0L4.6-35 11.45-35 23.55-11.25 35.55-35 42.4-35 42.4 0 36.95 0 36.9-26.75 25.4-3.65 21.65-3.65 10.05-26.75 10.05 0 4.6 0ZM67.9-11.85L59.95-11.85Q57.15-11.85 55.8-11 54.45-10.15 54.45-8.2L54.45-8.2Q54.45-6.35 55.82-5.25 57.2-4.15 59.6-4.15L59.6-4.15Q61.75-4.15 63.45-4.9 65.15-5.65 66.15-6.93 67.15-8.2 67.2-9.8L67.2-9.8 68.3-4.95Q67.05-2.35 64.5-1.05 61.95 0.25 58.4 0.25L58.4 0.25Q55.55 0.25 53.45-0.85 51.35-1.95 50.2-3.83 49.05-5.7 49.05-8L49.05-8Q49.05-11.6 51.67-13.75 54.3-15.9 59.1-15.95L59.1-15.95 67.9-15.95 67.9-11.85ZM67.2 0L67.15-16.85Q67.15-19.45 65.55-20.9 63.95-22.35 60.8-22.35L60.8-22.35Q58.9-22.35 56.92-21.65 54.95-20.95 52.95-19.6L52.95-19.6 50.6-23.3Q52.45-24.45 54.1-25.2 55.75-25.95 57.62-26.35 59.5-26.75 62.05-26.75L62.05-26.75Q67.2-26.75 69.97-24.28 72.75-21.8 72.8-17.45L72.8-17.45 72.85 0 67.2 0ZM80.8 0L80.8-37.1 86.55-37.1 86.55 0 80.8 0ZM111.94-11.85L103.99-11.85Q101.19-11.85 99.84-11 98.49-10.15 98.49-8.2L98.49-8.2Q98.49-6.35 99.87-5.25 101.24-4.15 103.64-4.15L103.64-4.15Q105.79-4.15 107.49-4.9 109.19-5.65 110.19-6.93 111.19-8.2 111.24-9.8L111.24-9.8 112.34-4.95Q111.09-2.35 108.54-1.05 105.99 0.25 102.44 0.25L102.44 0.25Q99.59 0.25 97.49-0.85 95.39-1.95 94.24-3.83 93.09-5.7 93.09-8L93.09-8Q93.09-11.6 95.72-13.75 98.34-15.9 103.14-15.95L103.14-15.95 111.94-15.95 111.94-11.85ZM111.24 0L111.19-16.85Q111.19-19.45 109.59-20.9 107.99-22.35 104.84-22.35L104.84-22.35Q102.94-22.35 100.97-21.65 98.99-20.95 96.99-19.6L96.99-19.6 94.64-23.3Q96.49-24.45 98.14-25.2 99.79-25.95 101.67-26.35 103.54-26.75 106.09-26.75L106.09-26.75Q111.24-26.75 114.02-24.28 116.79-21.8 116.84-17.45L116.84-17.45 116.89 0 111.24 0ZM147.14-26.55L135.04 3.75Q133.79 6.8 131.59 8.38 129.39 9.95 126.39 9.95L126.39 9.95Q124.59 9.95 123.12 9.4 121.64 8.85 120.24 7.75L120.24 7.75 122.69 3.5Q124.49 4.8 126.14 4.8L126.14 4.8Q127.44 4.8 128.49 4.05 129.54 3.3 130.19 1.75L130.19 1.75 131.09-0.35 120.09-26.55 126.04-26.55 133.99-6.05 141.39-26.55 147.14-26.55ZM168.39-24.15L166.29-20.1Q164.54-21.15 162.46-21.78 160.39-22.4 158.64-22.4L158.64-22.4Q156.94-22.4 155.84-21.75 154.74-21.1 154.74-19.6L154.74-19.6Q154.74-18.35 155.76-17.63 156.79-16.9 158.39-16.4 159.99-15.9 161.79-15.35 163.59-14.8 165.21-13.93 166.84-13.05 167.84-11.55 168.84-10.05 168.84-7.6L168.84-7.6Q168.84-4.9 167.41-3.18 165.99-1.45 163.66-0.63 161.34 0.2 158.64 0.2L158.64 0.2Q155.74 0.2 152.84-0.75 149.94-1.7 147.94-3.5L147.94-3.5 149.99-7.4Q151.74-5.85 154.24-4.98 156.74-4.1 158.89-4.1L158.89-4.1Q160.14-4.1 161.11-4.42 162.09-4.75 162.66-5.4 163.24-6.05 163.24-7.1L163.24-7.1Q163.24-8.5 162.24-9.3 161.24-10.1 159.64-10.63 158.04-11.15 156.24-11.68 154.44-12.2 152.86-13.05 151.29-13.9 150.29-15.35 149.29-16.8 149.29-19.2L149.29-19.2Q149.29-21.9 150.69-23.58 152.09-25.25 154.31-26.03 156.54-26.8 159.09-26.8L159.09-26.8Q161.59-26.8 164.09-26.1 166.59-25.4 168.39-24.15L168.39-24.15ZM174.64 0L174.64-26.55 180.34-26.55 180.34 0 174.64 0ZM177.49-37.5L177.49-37.5Q178.94-37.5 179.89-36.55 180.84-35.6 180.84-34.15L180.84-34.15Q180.84-32.75 179.89-31.78 178.94-30.8 177.49-30.8L177.49-30.8Q176.09-30.8 175.11-31.78 174.14-32.75 174.14-34.15L174.14-34.15Q174.14-35.6 175.11-36.55 176.09-37.5 177.49-37.5ZM205.48-11.85L197.53-11.85Q194.73-11.85 193.38-11 192.03-10.15 192.03-8.2L192.03-8.2Q192.03-6.35 193.41-5.25 194.78-4.15 197.18-4.15L197.18-4.15Q199.33-4.15 201.03-4.9 202.73-5.65 203.73-6.93 204.73-8.2 204.78-9.8L204.78-9.8 205.88-4.95Q204.63-2.35 202.08-1.05 199.53 0.25 195.98 0.25L195.98 0.25Q193.13 0.25 191.03-0.85 188.93-1.95 187.78-3.83 186.63-5.7 186.63-8L186.63-8Q186.63-11.6 189.26-13.75 191.88-15.9 196.68-15.95L196.68-15.95 205.48-15.95 205.48-11.85ZM204.78 0L204.73-16.85Q204.73-19.45 203.13-20.9 201.53-22.35 198.38-22.35L198.38-22.35Q196.48-22.35 194.51-21.65 192.53-20.95 190.53-19.6L190.53-19.6 188.18-23.3Q190.03-24.45 191.68-25.2 193.33-25.95 195.21-26.35 197.08-26.75 199.63-26.75L199.63-26.75Q204.78-26.75 207.56-24.28 210.33-21.8 210.38-17.45L210.38-17.45 210.43 0 204.78 0ZM237.83 0L237.83-15Q237.83-18.1 236.13-19.88 234.43-21.65 231.43-21.65L231.43-21.65Q227.88-21.6 225.86-19.15 223.83-16.7 223.83-13.05L223.83-13.05 222.23-13.05Q222.23-18 223.63-21 225.03-24 227.61-25.38 230.18-26.75 233.68-26.75L233.68-26.75Q236.78-26.75 239.01-25.5 241.23-24.25 242.41-21.98 243.58-19.7 243.58-16.5L243.58-16.5 243.58 0 237.83 0ZM218.13 0L218.13-26.55 223.88-26.55 223.88 0 218.13 0Z" fill="#ffffff" data-fill-palette-color="primary"></path><path d="M261.68 0L261.68-35 268.53-35 280.63-11.25 292.63-35 299.48-35 299.48 0 294.03 0 293.98-26.75 282.48-3.65 278.73-3.65 267.13-26.75 267.13 0 261.68 0ZM324.98-11.85L317.03-11.85Q314.23-11.85 312.88-11 311.53-10.15 311.53-8.2L311.53-8.2Q311.53-6.35 312.9-5.25 314.28-4.15 316.67-4.15L316.67-4.15Q318.83-4.15 320.53-4.9 322.23-5.65 323.23-6.93 324.23-8.2 324.28-9.8L324.28-9.8 325.38-4.95Q324.13-2.35 321.58-1.05 319.03 0.25 315.48 0.25L315.48 0.25Q312.63 0.25 310.53-0.85 308.42-1.95 307.28-3.83 306.13-5.7 306.13-8L306.13-8Q306.13-11.6 308.75-13.75 311.38-15.9 316.17-15.95L316.17-15.95 324.98-15.95 324.98-11.85ZM324.28 0L324.23-16.85Q324.23-19.45 322.63-20.9 321.03-22.35 317.88-22.35L317.88-22.35Q315.98-22.35 314-21.65 312.03-20.95 310.03-19.6L310.03-19.6 307.67-23.3Q309.53-24.45 311.17-25.2 312.83-25.95 314.7-26.35 316.58-26.75 319.13-26.75L319.13-26.75Q324.28-26.75 327.05-24.28 329.83-21.8 329.88-17.45L329.88-17.45 329.92 0 324.28 0ZM359.52-22.65L356.37-18.95Q354.97-20.4 353.07-21.2 351.17-22 348.77-22L348.77-22Q346.47-22 344.67-20.9 342.87-19.8 341.87-17.82 340.87-15.85 340.87-13.25L340.87-13.25Q340.87-10.65 341.87-8.68 342.87-6.7 344.67-5.58 346.47-4.45 348.77-4.45L348.77-4.45Q351.27-4.45 353.27-5.28 355.27-6.1 356.62-7.7L356.62-7.7 359.82-4.55Q358.02-2.3 355.15-1.05 352.27 0.2 348.52 0.2L348.52 0.2Q344.57 0.2 341.55-1.5 338.52-3.2 336.82-6.23 335.12-9.25 335.12-13.25L335.12-13.25Q335.12-17.25 336.82-20.28 338.52-23.3 341.55-25.03 344.57-26.75 348.52-26.75L348.52-26.75Q352.12-26.75 354.9-25.68 357.67-24.6 359.52-22.65L359.52-22.65ZM380.77-26.75L380.77-21.55Q377.92-21.7 375.85-20.58 373.77-19.45 372.64-17.45 371.52-15.45 371.52-12.85L371.52-12.85 369.92-13.05Q369.92-17.5 371.22-20.55 372.52-23.6 374.97-25.18 377.42-26.75 380.77-26.75L380.77-26.75ZM365.82 0L365.82-26.55 371.57-26.55 371.57 0 365.82 0ZM396.92-26.75L396.92-26.75Q401.02-26.75 404.14-25.05 407.27-23.35 409.02-20.33 410.77-17.3 410.77-13.3L410.77-13.3Q410.77-9.3 409.02-6.25 407.27-3.2 404.14-1.5 401.02 0.2 396.92 0.2L396.92 0.2Q392.82 0.2 389.67-1.5 386.52-3.2 384.77-6.25 383.02-9.3 383.02-13.3L383.02-13.3Q383.02-17.3 384.77-20.33 386.52-23.35 389.67-25.05 392.82-26.75 396.92-26.75ZM396.92-22.1L396.92-22.1Q394.52-22.1 392.67-20.98 390.82-19.85 389.79-17.85 388.77-15.85 388.77-13.25L388.77-13.25Q388.77-10.6 389.79-8.6 390.82-6.6 392.67-5.48 394.52-4.35 396.92-4.35L396.92-4.35Q399.32-4.35 401.14-5.48 402.97-6.6 403.99-8.6 405.02-10.6 405.02-13.25L405.02-13.25Q405.02-15.85 403.99-17.85 402.97-19.85 401.14-20.98 399.32-22.1 396.92-22.1ZM418.92-15.2L435.17-15.2Q435.07-17.45 434.14-19.03 433.21-20.6 431.57-21.48 429.92-22.35 427.77-22.35L427.77-22.35Q425.36-22.35 423.59-21.25 421.82-20.15 420.82-18.18 419.82-16.2 419.82-13.55L419.82-13.55Q419.82-10.7 420.89-8.6 421.96-6.5 423.89-5.35 425.82-4.2 428.32-4.2L428.32-4.2Q432.77-4.2 435.82-7.35L435.82-7.35 438.86-4.3Q436.92-2.15 434.11-0.98 431.32 0.2 427.86 0.2L427.86 0.2Q423.77 0.2 420.71-1.5 417.67-3.2 415.96-6.23 414.27-9.25 414.27-13.25L414.27-13.25Q414.27-17.25 415.96-20.28 417.67-23.3 420.71-25 423.77-26.7 427.71-26.75L427.71-26.75Q432.42-26.75 435.27-24.83 438.11-22.9 439.32-19.4 440.52-15.9 440.17-11.1L440.17-11.1 418.92-11.1 418.92-15.2ZM468.06-22.65L464.91-18.95Q463.51-20.4 461.61-21.2 459.71-22 457.31-22L457.31-22Q455.01-22 453.21-20.9 451.41-19.8 450.41-17.82 449.41-15.85 449.41-13.25L449.41-13.25Q449.41-10.65 450.41-8.68 451.41-6.7 453.21-5.58 455.01-4.45 457.31-4.45L457.31-4.45Q459.81-4.45 461.81-5.28 463.81-6.1 465.16-7.7L465.16-7.7 468.36-4.55Q466.56-2.3 463.69-1.05 460.81 0.2 457.06 0.2L457.06 0.2Q453.11 0.2 450.09-1.5 447.06-3.2 445.36-6.23 443.66-9.25 443.66-13.25L443.66-13.25Q443.66-17.25 445.36-20.28 447.06-23.3 450.09-25.03 453.11-26.75 457.06-26.75L457.06-26.75Q460.66-26.75 463.44-25.68 466.21-24.6 468.06-22.65L468.06-22.65ZM485.76-26.75L485.76-26.75Q489.86-26.75 492.99-25.05 496.11-23.35 497.86-20.33 499.61-17.3 499.61-13.3L499.61-13.3Q499.61-9.3 497.86-6.25 496.11-3.2 492.99-1.5 489.86 0.2 485.76 0.2L485.76 0.2Q481.66 0.2 478.51-1.5 475.36-3.2 473.61-6.25 471.86-9.3 471.86-13.3L471.86-13.3Q471.86-17.3 473.61-20.33 475.36-23.35 478.51-25.05 481.66-26.75 485.76-26.75ZM485.76-22.1L485.76-22.1Q483.36-22.1 481.51-20.98 479.66-19.85 478.64-17.85 477.61-15.85 477.61-13.25L477.61-13.25Q477.61-10.6 478.64-8.6 479.66-6.6 481.51-5.48 483.36-4.35 485.76-4.35L485.76-4.35Q488.16-4.35 489.99-5.48 491.81-6.6 492.84-8.6 493.86-10.6 493.86-13.25L493.86-13.25Q493.86-15.85 492.84-17.85 491.81-19.85 489.99-20.98 488.16-22.1 485.76-22.1ZM525.31 0L525.31-15Q525.31-18.1 523.61-19.88 521.91-21.65 518.91-21.65L518.91-21.65Q515.36-21.6 513.33-19.15 511.31-16.7 511.31-13.05L511.31-13.05 509.71-13.05Q509.71-18 511.11-21 512.51-24 515.08-25.38 517.66-26.75 521.16-26.75L521.16-26.75Q524.26-26.75 526.48-25.5 528.71-24.25 529.88-21.98 531.06-19.7 531.06-16.5L531.06-16.5 531.06 0 525.31 0ZM505.61 0L505.61-26.55 511.36-26.55 511.36 0 505.61 0ZM550.15-26.75L550.15-26.75Q554.26-26.75 557.38-25.05 560.51-23.35 562.26-20.33 564.01-17.3 564.01-13.3L564.01-13.3Q564.01-9.3 562.26-6.25 560.51-3.2 557.38-1.5 554.26 0.2 550.15 0.2L550.15 0.2Q546.06 0.2 542.9-1.5 539.76-3.2 538.01-6.25 536.26-9.3 536.26-13.3L536.26-13.3Q536.26-17.3 538.01-20.33 539.76-23.35 542.9-25.05 546.06-26.75 550.15-26.75ZM550.15-22.1L550.15-22.1Q547.76-22.1 545.9-20.98 544.06-19.85 543.03-17.85 542.01-15.85 542.01-13.25L542.01-13.25Q542.01-10.6 543.03-8.6 544.06-6.6 545.9-5.48 547.76-4.35 550.15-4.35L550.15-4.35Q552.56-4.35 554.38-5.48 556.21-6.6 557.23-8.6 558.26-10.6 558.26-13.25L558.26-13.25Q558.26-15.85 557.23-17.85 556.21-19.85 554.38-20.98 552.56-22.1 550.15-22.1ZM589.35 0L589.35-15Q589.35-18.15 587.7-19.93 586.05-21.7 583.1-21.7L583.1-21.7Q579.65-21.6 577.68-19.15 575.7-16.7 575.7-13.1L575.7-13.1 574.1-13.1Q574.1-18 575.48-21 576.85-24 579.38-25.38 581.9-26.75 585.35-26.75L585.35-26.75Q588.4-26.75 590.58-25.5 592.75-24.25 593.93-21.98 595.1-19.7 595.1-16.5L595.1-16.5 595.1 0 589.35 0ZM608.7 0L608.7-15Q608.7-18.15 607.03-19.93 605.35-21.7 602.4-21.7L602.4-21.7Q599-21.6 597.05-19.15 595.1-16.7 595.1-13.1L595.1-13.1 593.45-13.1Q593.45-18 594.83-21 596.2-24 598.73-25.38 601.25-26.75 604.7-26.75L604.7-26.75Q607.75-26.75 609.93-25.5 612.1-24.25 613.28-21.98 614.45-19.7 614.45-16.5L614.45-16.5 614.45 0 608.7 0ZM570 0L570-26.55 575.7-26.55 575.7 0 570 0ZM622.15 0L622.15-26.55 627.85-26.55 627.85 0 622.15 0ZM625-37.5L625-37.5Q626.45-37.5 627.4-36.55 628.35-35.6 628.35-34.15L628.35-34.15Q628.35-32.75 627.4-31.78 626.45-30.8 625-30.8L625-30.8Q623.6-30.8 622.63-31.78 621.65-32.75 621.65-34.15L621.65-34.15Q621.65-35.6 622.63-36.55 623.6-37.5 625-37.5ZM658.25-22.65L655.1-18.95Q653.7-20.4 651.8-21.2 649.9-22 647.5-22L647.5-22Q645.2-22 643.4-20.9 641.6-19.8 640.6-17.82 639.6-15.85 639.6-13.25L639.6-13.25Q639.6-10.65 640.6-8.68 641.6-6.7 643.4-5.58 645.2-4.45 647.5-4.45L647.5-4.45Q650-4.45 652-5.28 654-6.1 655.35-7.7L655.35-7.7 658.55-4.55Q656.75-2.3 653.87-1.05 651 0.2 647.25 0.2L647.25 0.2Q643.3 0.2 640.27-1.5 637.25-3.2 635.55-6.23 633.85-9.25 633.85-13.25L633.85-13.25Q633.85-17.25 635.55-20.28 637.25-23.3 640.27-25.03 643.3-26.75 647.25-26.75L647.25-26.75Q650.85-26.75 653.62-25.68 656.4-24.6 658.25-22.65L658.25-22.65Z" fill="#ffffff" data-fill-palette-color="accent"></path><path d="M672.1 0L687.55-35 693.6-35 708.9 0 702.6 0 690.4-29.05 678.25 0 672.1 0ZM679.8-8.1L679.8-13.1 700.75-13.1 700.75-8.1 679.8-8.1ZM732.89 0L732.89-15Q732.89-18.1 731.2-19.88 729.5-21.65 726.5-21.65L726.5-21.65Q722.95-21.6 720.92-19.15 718.9-16.7 718.9-13.05L718.9-13.05 717.3-13.05Q717.3-18 718.7-21 720.1-24 722.67-25.38 725.25-26.75 728.75-26.75L728.75-26.75Q731.85-26.75 734.07-25.5 736.3-24.25 737.47-21.98 738.64-19.7 738.64-16.5L738.64-16.5 738.64 0 732.89 0ZM713.2 0L713.2-26.55 718.95-26.55 718.95 0 713.2 0ZM762.99-11.85L755.04-11.85Q752.24-11.85 750.89-11 749.54-10.15 749.54-8.2L749.54-8.2Q749.54-6.35 750.92-5.25 752.29-4.15 754.69-4.15L754.69-4.15Q756.84-4.15 758.54-4.9 760.24-5.65 761.24-6.93 762.24-8.2 762.29-9.8L762.29-9.8 763.39-4.95Q762.14-2.35 759.59-1.05 757.04 0.25 753.49 0.25L753.49 0.25Q750.64 0.25 748.54-0.85 746.44-1.95 745.29-3.83 744.14-5.7 744.14-8L744.14-8Q744.14-11.6 746.77-13.75 749.39-15.9 754.19-15.95L754.19-15.95 762.99-15.95 762.99-11.85ZM762.29 0L762.24-16.85Q762.24-19.45 760.64-20.9 759.04-22.35 755.89-22.35L755.89-22.35Q753.99-22.35 752.02-21.65 750.04-20.95 748.04-19.6L748.04-19.6 745.69-23.3Q747.54-24.45 749.19-25.2 750.84-25.95 752.72-26.35 754.59-26.75 757.14-26.75L757.14-26.75Q762.29-26.75 765.07-24.28 767.84-21.8 767.89-17.45L767.89-17.45 767.94 0 762.29 0ZM775.89 0L775.89-37.1 781.64-37.1 781.64 0 775.89 0ZM812.94-26.55L800.84 3.75Q799.59 6.8 797.39 8.38 795.19 9.95 792.19 9.95L792.19 9.95Q790.39 9.95 788.91 9.4 787.44 8.85 786.04 7.75L786.04 7.75 788.49 3.5Q790.29 4.8 791.94 4.8L791.94 4.8Q793.24 4.8 794.29 4.05 795.34 3.3 795.99 1.75L795.99 1.75 796.89-0.35 785.89-26.55 791.84-26.55 799.79-6.05 807.19-26.55 812.94-26.55ZM834.19-24.15L832.09-20.1Q830.34-21.15 828.26-21.78 826.19-22.4 824.44-22.4L824.44-22.4Q822.74-22.4 821.64-21.75 820.54-21.1 820.54-19.6L820.54-19.6Q820.54-18.35 821.56-17.63 822.59-16.9 824.19-16.4 825.79-15.9 827.59-15.35 829.39-14.8 831.01-13.93 832.64-13.05 833.64-11.55 834.64-10.05 834.64-7.6L834.64-7.6Q834.64-4.9 833.21-3.18 831.79-1.45 829.46-0.63 827.14 0.2 824.44 0.2L824.44 0.2Q821.54 0.2 818.64-0.75 815.74-1.7 813.74-3.5L813.74-3.5 815.79-7.4Q817.54-5.85 820.04-4.98 822.54-4.1 824.69-4.1L824.69-4.1Q825.94-4.1 826.91-4.42 827.89-4.75 828.46-5.4 829.04-6.05 829.04-7.1L829.04-7.1Q829.04-8.5 828.04-9.3 827.04-10.1 825.44-10.63 823.84-11.15 822.04-11.68 820.24-12.2 818.66-13.05 817.09-13.9 816.09-15.35 815.09-16.8 815.09-19.2L815.09-19.2Q815.09-21.9 816.49-23.58 817.89-25.25 820.11-26.03 822.34-26.8 824.89-26.8L824.89-26.8Q827.39-26.8 829.89-26.1 832.39-25.4 834.19-24.15L834.19-24.15ZM840.43 0L840.43-26.55 846.13-26.55 846.13 0 840.43 0ZM843.28-37.5L843.28-37.5Q844.73-37.5 845.68-36.55 846.63-35.6 846.63-34.15L846.63-34.15Q846.63-32.75 845.68-31.78 844.73-30.8 843.28-30.8L843.28-30.8Q841.88-30.8 840.91-31.78 839.93-32.75 839.93-34.15L839.93-34.15Q839.93-35.6 840.91-36.55 841.88-37.5 843.28-37.5ZM871.88-24.15L869.78-20.1Q868.03-21.15 865.96-21.78 863.88-22.4 862.13-22.4L862.13-22.4Q860.43-22.4 859.33-21.75 858.23-21.1 858.23-19.6L858.23-19.6Q858.23-18.35 859.26-17.63 860.28-16.9 861.88-16.4 863.48-15.9 865.28-15.35 867.08-14.8 868.71-13.93 870.33-13.05 871.33-11.55 872.33-10.05 872.33-7.6L872.33-7.6Q872.33-4.9 870.91-3.18 869.48-1.45 867.16-0.63 864.83 0.2 862.13 0.2L862.13 0.2Q859.23 0.2 856.33-0.75 853.43-1.7 851.43-3.5L851.43-3.5 853.48-7.4Q855.23-5.85 857.73-4.98 860.23-4.1 862.38-4.1L862.38-4.1Q863.63-4.1 864.61-4.42 865.58-4.75 866.16-5.4 866.73-6.05 866.73-7.1L866.73-7.1Q866.73-8.5 865.73-9.3 864.73-10.1 863.13-10.63 861.53-11.15 859.73-11.68 857.93-12.2 856.36-13.05 854.78-13.9 853.78-15.35 852.78-16.8 852.78-19.2L852.78-19.2Q852.78-21.9 854.18-23.58 855.58-25.25 857.81-26.03 860.03-26.8 862.58-26.8L862.58-26.8Q865.08-26.8 867.58-26.1 870.08-25.4 871.88-24.15L871.88-24.15Z" fill="#ffffff" data-fill-palette-color="primary"></path></g></svg></g></svg></g><g transform="matrix(1,0,0,1,0,26.57269460277663)"><svg viewBox="0 0 395.52 13.285530391752575" height="13.285530391752575" width="395.52"><g transform="matrix(1,0,0,1,0,0)"><svg width="395.52" viewBox="3.66 -35.01 1391.87 46.75" height="13.285530391752575" data-palette-color="#d9caa1"><path d="M23.54-14.01L23.73-14.01Q24.07-15.33 24.48-16.61 24.88-17.9 25.46-19.48L25.46-19.48Q25.98-20.9 26.71-22.74 27.44-24.58 28.26-26.49 29.08-28.39 29.86-30.03 30.64-31.67 31.27-32.64L31.27-32.64Q32.06-33.84 32.97-34.42 33.89-35.01 35.67-35.01L35.67-35.01 38.87-35.01Q40.14-35.01 41-34.63 41.87-34.25 42.24-32.84L42.24-32.84Q42.5-31.79 42.75-29.76 42.99-27.73 43.16-24.15 43.33-20.56 43.43-14.93 43.53-9.3 43.53-1.03L43.53-1.03Q43.53-0.59 43.24-0.29 42.94 0 42.53 0L42.53 0 36.96 0Q36.55 0 36.25-0.29 35.96-0.59 35.96-1.05L35.96-1.05Q35.96-7.5 35.96-11.99 35.96-16.48 35.94-19.43 35.91-22.39 35.88-24.13 35.84-25.88 35.77-26.83L35.77-26.83 35.62-26.83Q34.33-23.85 32.86-20.2 31.4-16.55 30-12.68 28.61-8.81 27.51-5.13L27.51-5.13Q27.2-4.03 26.72-3.6 26.25-3.17 24.56-3.17L24.56-3.17 21.75-3.17Q20.31-3.17 19.84-3.54 19.36-3.91 19.02-5.13L19.02-5.13Q18.21-7.91 17.24-11.01 16.26-14.11 15.22-17.1 14.18-20.09 13.22-22.62 12.26-25.15 11.5-26.83L11.5-26.83 11.35-26.83Q11.16-23.95 11.01-19.82 10.86-15.7 10.78-10.86 10.69-6.03 10.67-1L10.67-1Q10.67-0.56 10.38-0.28 10.08 0 9.67 0L9.67 0 4.66 0Q4.25 0 3.96-0.29 3.66-0.59 3.66-1.05L3.66-1.05Q3.69-14.06 4.19-21.83 4.69-29.59 5.27-32.23L5.27-32.23Q5.66-33.96 6.65-34.48 7.64-35.01 8.91-35.01L8.91-35.01 12.87-35.01Q14.21-35.01 14.83-34.53 15.45-34.06 16.36-32.69L16.36-32.69Q16.89-31.88 17.64-30.27 18.38-28.66 19.19-26.7 20-24.73 20.72-22.81 21.44-20.9 21.9-19.48L21.9-19.48Q22.39-18.04 22.8-16.69 23.22-15.33 23.54-14.01L23.54-14.01ZM246.57 11.74L246.57 11.74Q245.67 11.74 245.2 11.56 244.74 11.38 244.42 11.11L244.42 11.11Q243.79 10.5 243.05 9.4L243.05 9.4Q242.88 9.13 242.69 8.78 242.49 8.42 242.49 8.18L242.49 8.18Q242.49 7.91 242.61 7.69 242.74 7.47 242.91 7.28L242.91 7.28Q243.3 6.76 243.86 6.21 244.42 5.66 244.81 5.35L244.81 5.35Q245.08 5.13 245.25 5.07 245.42 5 245.54 5L245.54 5Q245.67 5 245.91 5.05 246.15 5.1 246.64 5.1L246.64 5.1Q248.33 5.1 250.16 4 251.99 2.91 253.77-0.12L253.77-0.12Q251.92-1.83 250.12-4.41 248.33-6.98 246.89-10 245.45-13.01 244.58-16.02 243.71-19.02 243.71-21.56L243.71-21.56Q243.71-22.09 243.98-22.41L243.98-22.41Q245.1-23.8 247.18-25.32L247.18-25.32Q247.55-25.56 247.84-25.56L247.84-25.56Q248.16-25.56 248.5-25.32L248.5-25.32Q249.62-24.51 250.39-23.8 251.16-23.1 251.7-22.41L251.7-22.41Q251.97-22.09 251.97-21.51L251.97-21.51 251.97-21.61Q251.97-19.68 252.43-17.53 252.89-15.38 253.7-13.34 254.5-11.3 255.51-9.66 256.51-8.01 257.58-7.03L257.58-7.03 257.7-7.03Q258.19-7.96 258.79-9.7 259.39-11.45 259.92-13.59 260.46-15.72 260.8-17.83 261.14-19.95 261.14-21.58L261.14-21.58 261.14-21.51Q261.14-22.09 261.39-22.41L261.39-22.41Q261.95-23.1 262.71-23.8 263.46-24.51 264.54-25.32L264.54-25.32Q264.88-25.56 265.17-25.56L265.17-25.56Q265.51-25.56 265.81-25.32L265.81-25.32Q266.91-24.51 267.66-23.8 268.42-23.1 268.96-22.41L268.96-22.41Q269.2-22.09 269.2-21.53L269.2-21.53Q269.18-19.31 268.35-15.73 267.52-12.16 265.93-7.98 264.34-3.81 262.07 0.2L262.07 0.2Q258.68 6.23 254.75 8.98 250.82 11.74 246.57 11.74ZM269.2-21.58L269.2-21.58 269.2-21.51 269.2-21.53Q269.2-21.56 269.2-21.58ZM243.71-21.51L243.71-21.58 243.71-21.56 243.71-21.51ZM489.21-14.01L489.4-14.01Q489.75-15.33 490.15-16.61 490.55-17.9 491.14-19.48L491.14-19.48Q491.65-20.9 492.38-22.74 493.11-24.58 493.93-26.49 494.75-28.39 495.53-30.03 496.31-31.67 496.95-32.64L496.95-32.64Q497.73-33.84 498.64-34.42 499.56-35.01 501.34-35.01L501.34-35.01 504.54-35.01Q505.81-35.01 506.68-34.63 507.54-34.25 507.91-32.84L507.91-32.84Q508.18-31.79 508.42-29.76 508.67-27.73 508.84-24.15 509.01-20.56 509.11-14.93 509.2-9.3 509.2-1.03L509.2-1.03Q509.2-0.59 508.91-0.29 508.62 0 508.2 0L508.2 0 502.64 0Q502.22 0 501.93-0.29 501.64-0.59 501.64-1.05L501.64-1.05Q501.64-7.5 501.64-11.99 501.64-16.48 501.61-19.43 501.59-22.39 501.55-24.13 501.51-25.88 501.44-26.83L501.44-26.83 501.29-26.83Q500-23.85 498.53-20.2 497.07-16.55 495.68-12.68 494.29-8.81 493.19-5.13L493.19-5.13Q492.87-4.03 492.39-3.6 491.92-3.17 490.23-3.17L490.23-3.17 487.43-3.17Q485.99-3.17 485.51-3.54 485.03-3.91 484.69-5.13L484.69-5.13Q483.89-7.91 482.91-11.01 481.93-14.11 480.9-17.1 479.86-20.09 478.89-22.62 477.93-25.15 477.17-26.83L477.17-26.83 477.03-26.83Q476.83-23.95 476.68-19.82 476.54-15.7 476.45-10.86 476.37-6.03 476.34-1L476.34-1Q476.34-0.56 476.05-0.28 475.76 0 475.34 0L475.34 0 470.34 0Q469.92 0 469.63-0.29 469.34-0.59 469.34-1.05L469.34-1.05Q469.36-14.06 469.86-21.83 470.36-29.59 470.95-32.23L470.95-32.23Q471.34-33.96 472.33-34.48 473.32-35.01 474.58-35.01L474.58-35.01 478.54-35.01Q479.88-35.01 480.51-34.53 481.13-34.06 482.03-32.69L482.03-32.69Q482.57-31.88 483.31-30.27 484.06-28.66 484.86-26.7 485.67-24.73 486.39-22.81 487.11-20.9 487.57-19.48L487.57-19.48Q488.06-18.04 488.48-16.69 488.89-15.33 489.21-14.01L489.21-14.01ZM717.93 0.61L717.93 0.61Q714.34 0.61 712.23-1.4 710.12-3.42 710.12-6.96L710.12-6.96Q710.12-8.79 710.79-10.36 711.46-11.94 713.13-13.15 714.81-14.36 717.82-15.09 720.84-15.82 725.52-15.94L725.52-15.94Q725.52-18.16 724.41-19.14 723.3-20.12 721.08-20.12L721.08-20.12Q719.08-20.12 717.81-19.43 716.54-18.75 716.22-18.51L716.22-18.51Q715.88-18.21 715.39-18.29L715.39-18.29Q714.73-18.38 713.99-18.63 713.24-18.87 712.39-19.19L712.39-19.19Q712.27-19.24 712.12-19.35 711.97-19.46 711.95-19.68L711.95-19.68Q711.95-19.8 711.97-19.98 712-20.17 712.1-20.65L712.1-20.65Q712.19-21.14 712.39-21.86 712.58-22.58 712.76-22.97L712.76-22.97Q712.98-23.39 713.49-23.75L713.49-23.75Q713.9-24.1 716-24.85 718.1-25.61 722.08-25.61L722.08-25.61Q733.04-25.61 733.04-14.94L733.04-14.94 733.04-1.12Q733.04-0.66 732.79-0.33 732.53 0 731.92 0L731.92 0 728.26 0Q727.87 0 727.56-0.11 727.26-0.22 726.99-0.54L726.99-0.54 725.48-2.49 725.3-2.49Q724.18-0.85 722.29-0.12 720.4 0.61 717.93 0.61ZM720.62-5.05L720.62-5.05Q722.86-5.05 724.01-6.2 725.16-7.35 725.48-8.57L725.48-8.57 725.48-11.28Q722.08-11.28 720.39-10.75 718.69-10.23 718.13-9.39 717.57-8.54 717.57-7.57L717.57-7.57Q717.57-6.15 718.44-5.6 719.32-5.05 720.62-5.05ZM947.39-25.61L947.39-25.61Q950.29-25.61 951.61-25.13 952.93-24.66 953.27-24.39L953.27-24.39Q953.81-24.05 954.1-23.51L954.1-23.51Q954.27-23.24 954.49-22.58 954.71-21.92 954.81-21.14L954.81-21.14Q954.93-20.53 954.83-20.28 954.74-20.02 954.22-19.65L954.22-19.65Q953.64-19.26 952.94-18.96 952.25-18.65 951.81-18.53L951.81-18.53Q951.44-18.43 951.24-18.48 951.05-18.53 950.71-18.77L950.71-18.77Q950.32-19.04 949.61-19.37 948.9-19.7 947.66-19.7L947.66-19.7Q946.07-19.7 944.64-18.92 943.21-18.14 942.32-16.58 941.43-15.01 941.43-12.67L941.43-12.67Q941.43-9.16 943.27-7.23 945.12-5.3 948.22-5.3L948.22-5.3Q949.8-5.3 950.85-5.63 951.9-5.96 952.51-6.3L952.51-6.3Q953-6.57 953.26-6.43 953.51-6.3 953.66-5.96L953.66-5.96 955.44-1.93Q955.71-1.29 955.15-1.03L955.15-1.03Q954.25-0.56 952.17 0.02 950.1 0.61 947.05 0.61L947.05 0.61Q940.92 0.61 937.26-2.65 933.59-5.91 933.59-12.4L933.59-12.4Q933.59-16.55 935.28-19.51 936.96-22.46 940.06-24.04 943.16-25.61 947.39-25.61ZM1162.44-22.17L1162.44-20.36 1162.54-20.36Q1164.37-25.44 1169.13-25.44L1169.13-25.44Q1169.74-25.44 1170.13-25.38 1170.52-25.32 1170.67-25.27L1170.67-25.27Q1171.03-25.15 1171.03-24.71L1171.03-24.71 1171.03-18.82Q1171.03-18.07 1170.15-18.41L1170.15-18.41Q1169.86-18.53 1169.31-18.66 1168.76-18.8 1167.78-18.8L1167.78-18.8Q1165.27-18.8 1163.85-16.96 1162.44-15.11 1162.44-11.94L1162.44-11.94 1162.44-1.29Q1162.44-0.56 1162.13-0.28 1161.83 0 1161.1 0L1161.1 0 1156.07 0Q1155.33 0 1155.03-0.28 1154.72-0.56 1154.72-1.29L1154.72-1.29 1154.72-21.75Q1154.72-22.34 1154.97-22.66L1154.97-22.66Q1155.48-23.34 1156.2-24.05 1156.92-24.76 1157.97-25.56L1157.97-25.56Q1158.17-25.71 1158.36-25.76 1158.56-25.81 1158.7-25.81L1158.7-25.81Q1159.04-25.81 1159.39-25.56L1159.39-25.56Q1161.41-23.97 1162.22-22.85L1162.22-22.85Q1162.44-22.56 1162.44-22.17L1162.44-22.17ZM1381.96 0.61L1381.96 0.61Q1375.8 0.61 1372.22-2.66 1368.63-5.93 1368.63-12.4L1368.63-12.4Q1368.63-19.04 1372.35-22.33 1376.07-25.61 1382.3-25.61L1382.3-25.61Q1388.3-25.61 1391.92-22.38 1395.53-19.14 1395.53-12.84L1395.53-12.84Q1395.53-6.27 1391.92-2.83 1388.3 0.61 1381.96 0.61ZM1382.2-5.3L1382.2-5.3Q1384.89-5.3 1386.25-6.97 1387.62-8.64 1387.62-12.7L1387.62-12.7Q1387.62-16.55 1386.24-18.13 1384.86-19.7 1382.15-19.7L1382.15-19.7Q1379.54-19.7 1378.04-18.01 1376.54-16.31 1376.54-12.5L1376.54-12.5Q1376.54-8.52 1377.97-6.91 1379.39-5.3 1382.2-5.3Z" opacity="1" transform="matrix(1,0,0,1,0,0)" fill="#ffffff" class="slogan-text-1" data-fill-palette-color="secondary" id="text-1"></path></svg></g></svg></g></svg></g></svg></g></svg></g><defs></defs></svg><rect width="395.52" height="39.8582249945292" fill="none" stroke="none" visibility="hidden"></rect></g></svg></g></svg>