<svg xmlns="http://www.w3.org/2000/svg" version="1.1" xmlns:xlink="http://www.w3.org/1999/xlink" xmlns:svgjs="http://svgjs.dev/svgjs" width="128" height="128" viewBox="0 0 128 128"><g transform="matrix(0.8046875,0,0,0.8046875,12.333870967741937,49.862846822472946)"><svg viewBox="0 0 155 43" data-background-color="#111111" preserveAspectRatio="xMidYMid meet" height="35" width="128" xmlns="http://www.w3.org/2000/svg" xmlns:xlink="http://www.w3.org/1999/xlink"><g id="tight-bounds" transform="matrix(1,0,0,1,0.25,0.08415841584158557)"><svg viewBox="0 0 154.5 42.83168316831683" height="42.83168316831683" width="154.5"><g><svg viewBox="0 0 154.5 42.83168316831683" height="42.83168316831683" width="154.5"><g><svg viewBox="0 0 154.5 42.83168316831683" height="42.83168316831683" width="154.5"><g id="textblocktransform"><svg viewBox="0 0 154.5 42.83168316831683" height="42.83168316831683" width="154.5" id="textblock"><g><svg viewBox="0 0 154.5 42.83168316831683" height="42.83168316831683" width="154.5"><g transform="matrix(1,0,0,1,0,0)"><svg width="154.5" viewBox="4.6 -35 126.24000000000001 35" height="42.83168316831683" data-palette-color="#d9caa1"><g class="wordmark-text-0" data-fill-palette-color="primary" id="text-0"><path d="M4.6 0L4.6-35 11.45-35 23.55-11.25 35.55-35 42.4-35 42.4 0 36.95 0 36.9-26.75 25.4-3.65 21.65-3.65 10.05-26.75 10.05 0 4.6 0ZM51.6 0L51.6-35 58.45-35 70.55-11.25 82.55-35 89.4-35 89.4 0 83.95 0 83.9-26.75 72.4-3.65 68.65-3.65 57.05-26.75 57.05 0 51.6 0ZM94.05 0L109.5-35 115.55-35 130.84 0 124.55 0 112.34-29.05 100.2 0 94.05 0ZM101.75-8.1L101.75-13.1 122.7-13.1 122.7-8.1 101.75-8.1Z" fill="#000000" data-fill-palette-color="primary"></path></g></svg></g></svg></g></svg></g></svg></g></svg></g><defs></defs></svg><rect width="154.5" height="42.83168316831683" fill="none" stroke="none" visibility="hidden"></rect></g></svg></g></svg>